<svg width="10.000000" height="6.000000" viewBox="0 0 10 6" fill="none" xmlns="http://www.w3.org/2000/svg" xmlns:xlink="http://www.w3.org/1999/xlink">
    <defs/>
    <path id="arrow" d="M9.70715 0.292969C10.0676 0.65332 10.0953 1.2207 9.79028 1.61279L9.70715 1.70703L5.70715 5.70703C5.34668 6.06738 4.77942 6.09521 4.38708 5.79053L4.29285 5.70703L0.292847 1.70703C-0.0976562 1.31641 -0.0976562 0.683594 0.292847 0.292969C0.65332 -0.0673828 1.22058 -0.0952148 1.61292 0.209473L1.70715 0.292969L5 3.58496L8.29285 0.292969C8.65332 -0.0673828 9.22058 -0.0952148 9.61292 0.209473L9.70715 0.292969Z" fill="#3F8CFF" fill-opacity="1.000000" fill-rule="evenodd"/>
    <path id="arrow" d="M9.79028 1.61279L9.70715 1.70703L5.70715 5.70703C5.34668 6.06738 4.77942 6.09521 4.38708 5.79053L4.29285 5.70703L0.292847 1.70703C-0.0976562 1.31641 -0.0976562 0.683594 0.292847 0.292969C0.65332 -0.0673828 1.22058 -0.0952148 1.61292 0.209473L1.70715 0.292969L5 3.58496L8.29285 0.292969C8.65332 -0.0673828 9.22058 -0.0952148 9.61292 0.209473L9.70715 0.292969C10.0676 0.65332 10.0953 1.2207 9.79028 1.61279Z" stroke="#979797" stroke-opacity="0" stroke-width="0.000000"/>
</svg>
